<?xml version="1.0" encoding="UTF-8"?>
<svg id="Layer_1" xmlns="http://www.w3.org/2000/svg" version="1.1" viewBox="0 0 2172 724">
  <!-- full lockup, for dark surfaces - generated by tools/build-brand-assets.mjs, do not edit -->
  <defs>
    <style>
      .st0 {
        fill: #d9ac52;
      }

      .st1 {
        fill: #f6f3ea;
      }

      .st2 {
        fill: #e8e3d3;
      }
    </style>
  </defs>
  <circle class="st2" cx="241.83" cy="486.82" r="23.18"/>
  <path class="st2" d="M472.04,157.95c-10.75,10.97-23.17,20.43-36.99,27.98-6.25,3.41-12.46,4.92-19.12,5.6,15.97,3.51,41.93-9.55,51.78-19.69l165.39.48-.08,24.17-245.16.03.56,115.36c21.24-22.85,46.49-35.39,76.67-34.94,23.18-.76,45.83,5.86,64.4,19.4,44.31,32.19,48.94,89.23,20,134.23-8.83,13.73-20.12,24.73-31.63,36.26l-17.02,17.04c-17.08,17.11-25.54,41.69-22.77,66.04,2.22,19.57,11.61,37.17,25.32,51.1.73.74-.95,2.8-2,2.55-.71-.17-1.56-.44-2.79-1.23-40.97-26.17-62.47-72.75-45.67-119.54,5.73-15.97,14.79-29.51,24.88-42.96l13.35-17.8c19.12-25.5,33.46-59.74,20.9-90.06-8.48-20.48-29-31.81-51.16-29.01-33.56,4.24-57.74,26.33-72.99,56.21l.29,175.68c.02,14.96,4.4,28.81,11.94,40.85,14.94,23.86,37.48,18.24,28.28,25.27l-91.31-15.07-26.15-4.79c-1.24-.23-2.12-1.63-1.87-2.51.2-.7,1.48-1.88,2.59-1.89,21.44-.23,29.16-20.58,29.19-40.64.62.28,2.16.16,2.16-1.2v-142.58s-2.17-.4-2.17-.4c-8.26,6.98-16.07,14.37-26.17,19.83-21.69,11.73-47.57,13.23-70.53,4.17-31.64-12.49-48.58-43.77-48.63-77.14l-.22-142.19-62.23-.15c-9.01-.02-16.98,1.66-22.84,9.13-.12.37-.54,1.2-.82,1.43-.32.26-1.29.14-1.53-.44-.21-.5.12-1.09.12-1.47.48.26,2.03-.05,2.03-1.06l.05-30.01,302.73.02c1.3,0,1.83-.25,2.13-.56.26-.27.23-1.1.1-1.53,13.36,0,26.78-2.93,39.82-7.04l17.19-6.93ZM341.11,351.42c.19-.58.92-.54,1.24-.72.58-.32.68-1.49.68-2.75v-136.91c0-1.82.03-2.75-2.09-3.28.06-4.88-3.74-11.1-10.06-11.12l-89.58-.17.31,147.76c.02,10.63,2.63,20.33,6.39,29.72,9.32,23.28,35.48,29.99,58.26,18.28,16.67-8.56,29.02-22.98,34.85-40.81Z"/>
  <path class="st1" d="M415.03,171.93c.12.42.16,1.26-.1,1.53-.3.31-.83.56-2.13.56l-302.73-.02-.05,30.01c0,1.01-1.55,1.33-2.03,1.06l-.02-24.08c0-3.29.18-6.27,2.35-8.96l304.71-.09Z"/>
  <path class="st1" d="M340.84,536.08v-144.19s2.16.4,2.16.4v142.58c0,1.36-1.54,1.49-2.16,1.2Z"/>
  <path class="st1" d="M341.11,351.42l-.17-143.66c2.12.53,2.09,1.46,2.09,3.28v136.91c0,1.27-.1,2.44-.68,2.75-.32.17-1.05.13-1.24.72Z"/>
  <path class="st0" d="M467.71,171.85c-9.86,10.14-35.81,23.2-51.78,19.69,6.66-.69,12.87-2.19,19.12-5.6,13.83-7.55,26.24-17.02,36.99-27.98l7.63-7.14,3.68.71c1.25.24,1.74-1.67,2.66-2.47l27.19-23.86,37.56-30.84c-28.1,11.97-51.03,30.99-70.76,52.48-1.14-7.93.73-15.81,2.85-23.94,8.93-34.26,39.78-51.44,73.79-55.04,11.14-1.18,21.87-.46,33.64.18-3.33,31.98-17.78,63.26-47.43,76.64-17.94,8.09-37.33,10.02-56.72,8.22l-18.42,18.95Z"/>
  <path class="st0" d="M708.46,157.23c2.5,102.38.03,286.02.9,398.92,0,18.58.02,31.88,0,44.01-.01.03-.05.05-.14.07-.6.04-3.33.22-3.27-.14,2.15-10.03-4.35-439.93,2.44-442.86h.08Z"/>
  <path class="st0" d="M1317.34,128.49c-.63.93-1.83,1.76-2.51,2.72-1.31,1.74-1.15,4.39-1.16,6.72.03.87.04,1.83.45,2.57.52.91,1.66,1.02,2.66,1.07,2.91-.05,7.13.2,10.19-.18,1.95-.34,1.8-2.55,1.82-4.1.09-4.75-.38-6.02-4-8.67-2.13-2.98,11.36-1.73,12.95-1.87,2.09.02,4.99.61,2.48,3.1-1.06.97-1.61,1.84-1.56,3.26-.13,4.44-.48,16.71-.6,21.32,0,.63.01,1.3.24,1.83.75,1.83,6.94,4.68,1.39,4.81-3.34,0-9.41-.02-12.65-.04-2.19-.08-3.53-.39-.84-2.39.99-.85,1.94-1.63,2.25-2.84.32-1.14.3-2.39.34-3.59,0-2,.18-4.27-.19-5.37-.4-1.13-1.44-1.19-2.62-1.28-1.79-.07-3.73-.04-5.52-.09-3.15-.05-6.05-.18-6.43,2.99.07,3.45-.85,7.29,1.67,10.03.66.82,1.83,2.2.9,2.67-1.45.78-5.19.26-7.24.36-2.86-.27-10.27.79-8-2.05,1.03-1.25,2.94-1.98,2.82-3.84-.01-4.9.03-17.4-.1-23.84.02-1.73-3.36-2.74-3.07-4.07.5-.77,1.84-.67,2.91-.74,1.74-.03,3.75-.05,5.56-.08,2.41.14,8.93-.83,7.92,1.49l-.05.09Z"/>
  <path class="st0" d="M1728.2,138.93c1.7-1.78,3.9-3.24,5.53-5.12.6-.71,1.03-1.51,1.21-2.41.46-3.23-.43-4.34,3.01-4.42,1.92.2,15.8-1.41,9.16,2.63-3.66,1.81-6.88,4.48-10.05,7.04-1.68,1.56-4.31,2.84-3.45,4.87.43.77,1.18,1.39,1.76,2.08,1.28,1.68,2.81,4.31,4.66,6.03,2.21,2.43,4.08,5.53,6.84,7.44.97.83,3.46,2.08,3.07,3.42-.26.44-1.21.71-2.57.73-2.37.04-5.38.04-7.84.05-4.34.27-4.3-1.11-6.27-4.67-1.95-2.72-4.51-5.55-6.65-8.09-3.03-3.52-2.76,3.84-2.59,5.51-.11,3.79,7.53,7.04.72,7.22-3.33,0-7.46-.01-10.74-.01-2.24,0-4.43.02-3.01-1.74,1.57-1.67,3.92-2.42,3.63-5.18.03-3.59.07-11.31.1-15.95-.02-1.85.18-3.43-.49-5.1-.31-1.69-3.89-3.89-3.31-5.55.33-.54,1.45-.85,3.03-.83,3.07.03,7.18.09,10.36.13,1.11.1,2.48-.15,3.08.82.23.81-1.43,1.76-2.28,2.86-1.44,2.13-.75,5.21-.96,7.69-.06,4.01,1.49,3.19,3.94.69l.13-.13Z"/>
  <path class="st0" d="M1544.81,158.53c-2.79-2.99-4.72-8.69-8.01-11.33-2.03-1.28-3.28.03-3.25,2.75-.11,2,.14,4.64,1.37,6.58.52,1.17,2.55,3.13,1.67,4.24-.54.5-1.98.58-3.72.55-3.24-.05-8.44,0-10.91-.12-1.19-.05-2.3-.71-1.05-1.74.92-.96,2.73-1.16,3.07-2.55.21-5.51.05-18.64.06-25.11.11-1.86-3.39-2.71-3.24-4.19.62-1.11,2.13-.58,4.3-.67,4.97.07,13.14.19,16.73.25,2.85-.05,5.82.47,8.13,2.33,4.92,4.01,3.56,11.17-1.72,13.89-1.11.75-1.86,1.37-1.67,2.3.56,1.81,2.47,3.46,3.61,5.03,2.01,2.55,3.44,4.08,5.84,6,1.09,1.08,3.17,2.18,3.5,3.66-.36,1.02-2.14.88-3.14,1.05-4.22.34-8.59,0-11.45-2.81l-.11-.11ZM1534.37,142c.9,1.85,4.25,1.07,5.88.22,3.97-1.73,4.16-8.03,1.25-10.63-1.68-1.44-5.01-3-6.77-1-1.78,2.93-1.25,8.18-.42,11.28l.07.14Z"/>
  <path class="st0" d="M1839.8,132.78c3.27,3.54,9.12,10.16,12.12,13.44.34.33.63.72.99.81.34.05.4-.67.45-2.03.03-1.03.07-2.41.11-3.87.06-2.18.14-4.47.17-6.52,0-1.38-.04-2.79-1.01-3.82-1.12-1.13-3.15-2.35-2.89-3.23.64-1.17,2.24-1.01,3.53-1.09,1.79.01,4.19.02,5.95.08,2.99.11,3.17,1.15,1.15,3.13-1.14,1.12-1.9,1.94-1.85,3.53-.06,5.17-.17,22.17-.24,26.92.1,2.67-2.8,2.45-5.33.52-2.29-2.03-4.4-4.33-6.53-6.45-2.42-2.58-9.38-9.99-12.78-13.61-.89-.96-1.51-1.56-1.92-1.36-1.17,1.3-.88,5.51-1.13,7.65,0,3.8-.44,7.88,1.74,11.06,1.12,1.44,4.2,1.18,3.34,3.43-1.4,2.03-4.12.81-6.35.71-1.33-.14-2.67-.15-3.96-.2-3.19-.11-4.39-1.36-1.91-3.6,1.24-1.05,1.9-2.05,1.87-3.65.13-4.29.48-16.16.61-20.8.32-2.44-1.43-3.33-2.91-4.93-2.27-3.14,4.26-2.58,5.92-2.65,2.42.05,4.3.36,6.2,1.93,1.59,1.27,3.2,3.1,4.54,4.48l.1.11Z"/>
  <path class="st0" d="M1058.35,135.09c-.37.24-.9.12-1.48-.27-1.32-.9-2.48-2.44-3.88-3.32-1.85-1.27-4.57-1.35-6.85-1.23-1.91.03-3.25,1.07-3.28,3.14,0,2.2-.46,5.77.74,7.55.67.79,1.77.91,2.9.84,1.37-.09,2.76-.52,3.94-1.21,1.82-1.03,3.06-2.67,3.96-1.03.69,1.34,1.19,9.54-1.18,9.13-1.49-.45-2.86-2.3-4.51-2.89-4.11-1.51-6.34,1.09-6.04,5.44-.05,2.14.2,4.32,1.64,5.48,2.61,1.91,6.49,1.44,9.28.19,1.99-.52,5.12-5.5,6.87-3.45.67.96.38,3.51.12,5.14-.17.98-.34,2.36-1.56,2.41-7.25.16-22.05.22-27.42.29-.49,0-1.08-.03-1.43-.25-1.1-.99,1.83-2.53,2.41-3.23.55-.52.71-1.2.69-2.35-.01-5.05-.03-18.23-.05-22.92.23-2.1-2.08-2.77-2.94-4.35-1.01-1.71.75-2.28,2.13-2.12,5.49.1,19.71.14,24.79.31.92.11,1.14.53,1.35,1.54.11,1.43,1.04,5.91-.11,7.11l-.08.06Z"/>
  <path class="st0" d="M1398.12,131.83c.1,1.8-.62,3.03-1.75,2.83-1.59-.44-2.62-2.34-4.01-3.23-1.61-1.42-8.95-2.22-10.11.2-.77,2.15-.58,5.45-.24,7.79.67,2.87,4.64,2.55,6.83,1.64,1.79-.73,4.53-4.32,5.09-.31.14,2.25.31,5.98-.39,7.38-.36.78-1.08.91-1.86.34-1.18-.78-2.21-2.29-3.64-2.85-1.48-.58-3.41-.53-4.74.4-2.26,1.55-1.82,6.5-1.01,9.11,1.62,3.83,6.9,3.04,10.08,1.71,3.18-1.37,4.66-3.95,6.15-4.22,2.33-.35,1.25,4.54,1,6.26-.21,1.1-.9,2.11-2.05,2.31-5.1.12-11.41,0-16.86.18-3.06.06-4.28.06-6.87,0-1.53-.06-3.6,0-4.84-.87-.82-1.07,1.84-2.12,2.42-2.73.54-.45.69-1.06.71-1.76.05-4.39.19-18.6.21-23.2.12-1.97-1.75-2.68-2.93-3.99-.65-.67-.86-1.28-.45-1.6.36-.29,1.16-.34,1.74-.34,5.61-.05,21.05-.27,25.2-.27,2.22.1,2.02,3.05,2.31,5.02v.19Z"/>
  <path class="st0" d="M1606.74,146.97c-2.26-2.21-7.96-2.89-7.79,1.74.1,2.41-.32,5.26.69,7.47.73,1.26,2.28,1.48,3.64,1.61,3.14.29,6.28-.38,8.56-2.32.92-.76,1.87-1.77,2.85-2.37,3.69-2.09,1.79,4.1,1.42,6-.36,1.58-.73,2.33-2.23,2.26-4.74-.02-21.75-.08-26.93-.13-3.73-.27.9-3.1,1.86-4.05.47-.52.57-1.15.6-1.87.02-4.27-.03-16.8-.03-21.77.1-1.97-.51-2.63-1.81-3.74-.61-.69-1.91-1.61-1.35-2.59.52-.6,2.07-.44,4.24-.45l13.83.07c3.27.02,6.17.03,7.88.04.79.03,1.56-.07,1.95.67.22.47.28,1.06.34,1.6.3,3.04.66,8.71-2.91,4.58-.74-.79-1.41-1.65-2.31-2.26-2.28-1.49-6.32-1.77-9.02-.68-1.5.91-1.25,2.96-1.22,4.6.11,1.61.06,3.85.91,5.04,1.8,2.27,5.87,1.06,7.81-.68.74-.46,1.41-1.07,2.24-.85,1.25.28,1.03,4.26,1.01,6,.03,4.97-1.51,4.81-4.11,2.18l-.13-.11Z"/>
  <path class="st0" d="M1112.4,132.35c-1.7-1.66-4.25-1.84-6.89-1.9-1.7-.04-3.92.02-4.25,2.1-.3,2.29-.51,6.27.18,7.87,1.15,1.99,4.31,1.4,6.16.72,2.11-.96,4.12-3.01,5.03-1.98.85,1.21.59,2.85.58,4.32-.11,1.58.02,4.04-.84,5.11-.98.99-2.25-.82-3.13-1.44-1.74-1.75-5.21-2.57-7.08-.53-1.52,1.81-1.29,4.83-1.12,7.13.41,5.44,8.31,5.02,11.82,2.98,1.54-.84,2.66-2.43,4.05-3.43,1.09-.78,2.12-1.11,2.46.06.37,1.72-.65,5.36-1.47,7.28-.26.46-.66.66-1.17.71-1.04.07-3.02,0-5.56,0-5.62-.03-14.44-.08-19.56-.11-6.11.25-3.44-1.38-1.12-3.97,1.79-2.04,1.5-5.08,1.47-7.65-.13-3.17.04-7.27.08-10.78,0-1.91.17-4.2-.5-6.12-.55-1.63-2.04-2.66-2.78-3.64-1.48-1.65.6-2.34,1.99-2.21,4.97,0,18.89-.02,23.66,0,.76.02,1.48.14,1.92.73.35.46.54,1.18.68,2.09.18,1.55.57,3.43-.11,4.8-1.35,1.92-2.96-.67-4.38-2.02l-.13-.12Z"/>
  <path class="st0" d="M1466.8,126.22c5.14-.46,10.5.44,15.7.03,3.67-.04,8.47-1.53,10.21,2.05,1.11,1.8,1.65,8.23-1.92,6.11-1.93-1.67-3.86-4.16-6.81-4.21-6.6-.85-7.82,3.83-6.23,9.29,1.01,2.48,4.37,2.68,6.68,1.32.96-.54,1.95-1.36,2.9-1.79,2.6-1,1.85,3.34,1.85,5-.21,1.63.13,3.58-.99,4.78-1.09.7-3.04-2.07-5.77-2.73-.6-.16-1.26-.24-1.87-.17-3.01.27-3.45,3.7-3.35,6.2,0,2.32.7,4.82,2.61,6.17,2.07,1.66,3.35,3.21-.49,3.14-4.34-.22-10.82.2-14.77-.47-1.6-1.02,2.23-2.71,2.75-3.53.39-.46.5-1.04.54-1.68.06-4.06.1-15.91.14-20.67.02-1.44.05-2.83-.94-3.93-1.74-1.8-3.93-3.92-.39-4.85l.17-.04Z"/>
  <path class="st0" d="M1667.65,128.48c3.47,6.58,6.66,14.46,9.93,21.42,1.2,2.6,2.22,5.04,4.27,7.33,1.33,1.46,2.59,1.91,2.79,2.77.2,1.3-.9,1.57-2.9,1.59-2.41-.04-5.97-.12-8.58-.17-1.78-.21-4,.4-5.33-.7-.56-.83,1.98-2.53,1.88-4.82-.09-2.38-1.81-4.58-4.12-5.19-4.64-1.08-12.55-.99-12.36,5.32.17,2.14,2.9,3.79,2.13,4.69-.58.82-3.81.58-6.9.66-1.51-.08-3.52.34-4.74-.55-.57-.55.29-1.53,1.17-2.23,1-.77,1.8-1.14,2.28-2.28,2.32-4.76,11.24-23.11,13.36-27.45,1.06-2.84,5.41-3.13,7.02-.53l.1.15ZM1666.14,146.93c.45-.29-.12-1.08-.67-2.47-1.13-2.36-2.5-6.41-3.74-8.43-.78,1.27-3.98,8.63-4.93,10.68-.2.77.5.65,1.29.73,2.37.04,5.91.23,7.96-.45l.08-.05Z"/>
  <path class="st0" d="M973.88,159.77c.36-.8,1.98-1.87,2.74-2.86.84-1.09.77-2.32.75-3.62-.13-4.69-.39-17.66-.55-21.38-.05-1.67-2.07-2.07-2.92-3.26-1.19-1.4.6-1.95,1.76-1.86,5.09,0,19.62-.05,24.31-.04.78.02,1.48.16,1.9.82.88,1.62,1.04,4.76.8,6.58-.58,3.19-3.29-.66-4.43-1.52-1.82-1.78-4.08-2.33-6.56-2.3-2.02,0-3.75.08-4.4,1.28-.65,1.24-.48,2.73-.52,4.13.04,1.64-.18,4.16.74,5.26,1.7,1.59,4.83.52,6.61-.51,1.17-.58,2.41-2.24,3.69-1.23,1.31.87,1.56,8.99-.1,9.58-1.66.33-2.89-1.46-4.33-2.1-1.74-.96-4.54-1.54-5.97.22-.94,1.2-.89,2.87-.92,4.34,0,1.97-.08,4.11.95,5.51.83,1.24,2.43,2.07,3.31,3.19,1.08,2.07-4.7,1.19-5.92,1.37-1.94-.29-12,.92-11-1.51l.04-.09Z"/>
  <path class="st0" d="M1251.68,151.19c-.62-3.85.05-8.01.11-11.94-.14-2.22.43-5.37-.75-7.49-1.89-2.33-6.03-.81-7.74,1.14-.94,1-1.39,2.18-2.1,2.92-.87.98-2,.91-2.51-.06-.54-.84-.31-2.51-.03-4.3.24-1.54.41-3.05.71-3.87.18-.49.41-.73.76-.83,5.56-.21,25.24-.25,31.49-.16.92.16,1.2,1.07,1.41,1.89.37,2.24,1.4,5.75.09,7.78-.43.43-1.11.15-1.92-.72-1.4-1.52-2.92-3.99-5.06-4.76-1.61-.64-3.4-.38-4.32.11-1.05.54-.99,1.63-.98,2.67.05,4.22.18,15.65.24,20.98,0,1.4,0,2.32.53,2.91.63.81,5.01,2.18,2.72,3.42-3.94.62-10.85.29-14.77.5-.75.02-1.92-.13-2.17-.72-.21-.72.55-1.3,1.02-1.76,2.93-2.05,3.79-3.92,3.3-7.51l-.02-.19Z"/>
  <path class="st0" d="M1177.18,152.52c.7,1.16-.18,3.22-.57,5.39-.41,1.2-.28,3.26-1.83,3.45-6.8.03-23.23-.06-27.78-.14-.31-.04-.54-.12-.67-.24-.71-1.14,2.57-2.97,3.33-3.77.59-.56.73-1.21.7-2.25-.16-4.68-.6-18.97-.77-22.84-.04-1.54-1.63-1.94-2.56-2.96-.61-.6-.92-1.22-.56-1.65.44-.63,1.81-.68,3.74-.63,3.77.05,9.6.03,12.26.13,1.62.08,1.75.96.58,1.92-1.34,1.23-3.58,1.74-3.29,3.95-.01,4.65-.05,18-.05,22.46-.18,2.5,2.77,2.37,4.71,2.48,3.02.08,5.77-.69,7.69-2.64,1.17-1.06,3.34-3.87,5.01-2.75l.06.08Z"/>
  <path class="st0" d="M1794.44,160.57c.05.73-1.3.68-3.44.67-2.55,0-5.96,0-8.66.01-2.03-.17-4.2.43-5.95-.4-.83-1.07,1.5-2.36,2.62-2.98,1.18-.5,1.43-1.43,1.34-2.69-.05-5.2-.11-19.51-.19-23.5-.08-1.58-1.99-1.7-2.99-2.69-2.07-1.95.54-1.98,2.94-1.93,3.65,0,9.22-.02,12.02,0,.71.03,2.05.08,1.89,1-.52,1.58-3.06,1.7-3.59,3.16-.33,4.46-.3,16.23-.48,22.34-.03,2.18-.2,3.15.9,3.81,1.24.83,3.06,1.64,3.59,3.12v.08Z"/>
  <path class="st0" d="M2032.17,142.04c.05,1.05.25,2.84-.63,2.88-7.12-.13-76.35.31-83.67-.11-.38-.54-.54-3.4.23-3.6,20.33-.06,47.76-.02,68.27-.05,7.96,0,13.8-.02,15.31,0,.37.07.38.34.47.79v.09Z"/>
  <path class="st0" d="M833.78,144.09c-.05-1.05-.25-2.82.64-2.85,6.77-.01,75.06-.07,82.16-.07.19,0,.33.02.44.15.42.48.42,3.1-.03,3.48-.99.29-2.81.03-5.84.12-18.27.02-43.33.04-61.61.05-7.92,0-13.74.03-15.26,0-.37-.06-.39-.34-.48-.78v-.09Z"/>
  <path class="st0" d="M1885.97,141.43c-.15-.11-.13-.28-.07-.47.37-1.14,2.76-3.9,3.25-5.48.05-.26.01-.49-.14-.71-.59-.76-2.64-1.38-3.24-2.64-2-3.74,2.62-6.89,6.07-5.48,7.79,3.4.85,14.84-5.81,14.81l-.07-.04Z"/>
  <path class="st1" d="M1121.07,222.99c19.21,1.78,39.89,7.68,53.65,21.96,19.81,21.49,17.97,61.9-4.09,81.77-5.67,5.51-12.24,9.86-19.27,13.63-8.36,3.79-10.94,10.45-4.45,17.74,133.11,187.98,405.32,187.53,608.31,138.94,70.91-17.12,138.64-43.47,208.69-61.82,10.04-2.2,16.99-9.93,24.43-16.42,13.12-10.89,27.34-20.4,42.73-27.38,26-11.84,57.04-15.44,83.9-4.35,5.59,2.56,13.73,4.64,15.56,10.84.27,2.12-3.09,4.25-5.8,5.1-6.98,2.23-14.51,3.3-21.87,4.61-21.92,3.35-40.93,5.78-62.78,12.03-7.41,3.56-75.58,13.6-67.85,22.95,2.89,1.74,6.51.09,9.63-.69,35.9-11.67,73.51-21.03,110.16-29.53,7.44-1.52,15.08-3.95,22.52-4.59,2.41-.04,3.23.85,2.17,2.78-8.98,11.26-20.1,20.87-30.21,31.05-21.76,21.08-54.08,35.71-84.35,27.29-17.61-4.26-23.92-16.34-40.69-14.02-20.97,3.94-38.79,14.26-59.18,21.89-63.13,26.22-127.51,52.23-193.04,64.57-156.03,30.45-325.06,21.77-468.49-51.16-51.52-27.58-97.03-67.94-127.67-117.71-2.96-4.72-5.8-9.76-10.41-13.03-7.3-4.55-21.79-6.54-28.01.07-5.32,14.01-.93,36.52-2.09,49.67.62,11.95-1.31,28.03,5.97,37.73,1.66,4.6,27.68,8.27,14.48,13.91-16.66,1.87-33.93-.14-50.59,1-9.87-.13-30.54,3.43-28.5-5.58,8.16-5.87,19.2-8.42,19.89-20.86,3.09-30.64.63-132.38,1.11-164.35-.48-11.33,2.3-27.74-8.29-36.04-4.1-3.25-10.24-3.88-13.47-8.03-2.12-3.91,3.56-5.32,6.98-5.29,29.3.15,69.23-.23,100.73,1.33l.2.02ZM1145.83,315.55c8.75-19.8,7.46-44.96-6-62.36-12.22-15.52-34.46-20.63-53.19-16.31-9.94,2.63-10.77,11.6-10.56,20.33,0,22.54-.02,56.23.01,71.45.04,2.83.43,5.39,2.53,7.75,2.98,3.44,8.63,4.75,13.24,4.99,22.36,1.87,44.95-4.83,53.87-25.67l.08-.18Z"/>
  <path class="st1" d="M1375.02,468.74c-5.72-.8-11.95-2.51-17.84-3.99-5.77-1.46-11.59-2.82-17.14-4.9-27.98-10.64-52.48-30.54-66.93-56.83-12.02-23.05-15.66-48.35-13.05-74.36,9.6-112.09,163.99-149.21,238.6-74.54,51.9,51.81,40.91,147.61-18.33,189.35-30.87,22.99-71.59,28.23-105.17,25.29l-.14-.02ZM1476.74,404.76c28.9-60.99,5.78-157.61-67.25-173.67-18.76-4.08-37.83-1.86-55.01,6.15-67,33.45-65.76,137.64-19.34,188.7,41.31,47.72,115.98,36.93,141.51-21l.09-.18Z"/>
  <path class="st1" d="M1882.57,219.66c19.07.38,37.86.06,57.17.18,34.31.03,85.85.05,99.97.08,2.05-.03,4.02.84,4.54,3.09.76,2.56-1.05,6.81-3.02,9.31-40.44,57.72-100.05,149.94-138.26,209.16-3.68,6.4-7.91,9.51-15.12,11.49-12.32,3.84-31.27,9.66-41.44,12.78-1.41.51-3.37.87-4.43.4-1.01-.53-.74-2.15.37-4.44,1.2-2.5,2.99-5.17,4.52-7.56,35.31-53.78,82.56-124.41,122.49-185.15,5.01-7.59,10.16-14.87,15.12-22.57,1.68-2.54,4.05-6.4,3.65-8.99-1.05-5.48-10.11-4.05-14.71-4.31-3.43.02-7,.03-10.65.05-18.84.39-38.07-.69-56.56,1.55-11.03.99-22.41,3.82-31.19,10.83-4.39,3.63-7.52,8.86-9.94,14.14-1.51,3.18-5.09,10.95-9.01,8.84-3.76-3.33-1.61-10.73-1.47-15.42.56-5.72,1.2-11.81,1.8-17.6.66-5.83.77-11.31,3.51-13.94,4.86-4.57,16.03-1.64,22.47-1.93h.21Z"/>
  <path class="st1" d="M1687.24,215.42c60.72-3.86,127.27,34.33,136.78,97.74,3.55,17.72,3.61,35.66-.22,53.37-5.61,30.9-23.22,57.78-48.13,76.22-60.51,45.61-164.62,32.5-200.52-38.2-5.41-10.64-9.4-21.78-12.26-33.32-1.79-7.65-1.8-15.68-2.23-23.7-4.19-71.24,55.44-130.67,126.39-132.12h.2ZM1756.05,429.83c45.16-53.93,36.39-151.73-25.89-189.56-17.73-10.31-39.94-13.72-59.98-8.81-95.13,24.49-85.73,193.94,4.54,221.31,28.48,8.31,61.63.03,81.2-22.79l.13-.15Z"/>
  <path class="st1" d="M977.36,223.49c6.17,6.98,2.7,25.23,3.94,34.69,1.41,14.13-7,14.47-11.59,2.23-9.58-24.42-32.41-23.2-54.71-23.28-8.66-.14-16.25-1.03-23.86-.01-7.51,1.28-8.55,5.69-8.67,18.52.14,21.15-.21,42.76.25,63.75-.03,5.88,1.59,12.62,8.33,13.69,15.8.18,39.55,3.82,52.02-6.23,5.1-3.38,5.68-13.56,11.79-14.74,6.92,1.23,2.16,40.98,3.69,49.57.55,4.66-1.93,15.89-7.73,8.69-3.31-4.92-4.77-11.52-9.82-15.2-9.51-7.27-22.49-5.33-34.06-6.17-8.45-.41-22.93-.92-23.68,4.76-2.64,10.58.55,32.32-.58,44.89.65,14.52-1.89,32.49,3.99,45.53,3.48,7.02,12.09,8.03,18.48,10.79,15.65,10.9-41.27,5.77-46.54,6.91-5.25-.89-42.54,3.91-35.65-5.95,4.41-3.5,11.36-4.11,15.01-8.63,10.92-11.36,4.79-80.3,6.35-100.3-.13-34.77.17-70.89-.18-93.52-.28-13.74-6.18-19.56-18.72-24.31-11.13-9.07,13.05-7.06,17.52-6.89,31.69.27,73.79.38,108.63-.21,8.11.06,18.46-2.71,25.68,1.36l.11.08Z"/>
</svg>
